<?xml version="1.0" encoding="UTF-8" standalone="no"?>
<svg
   xmlns:dc="http://purl.org/dc/elements/1.1/"
   xmlns:cc="http://creativecommons.org/ns#"
   xmlns:rdf="http://www.w3.org/1999/02/22-rdf-syntax-ns#"
   xmlns:svg="http://www.w3.org/2000/svg"
   xmlns="http://www.w3.org/2000/svg"
   xmlns:sodipodi="http://sodipodi.sourceforge.net/DTD/sodipodi-0.dtd"
   xmlns:inkscape="http://www.inkscape.org/namespaces/inkscape"
   width="233"
   height="60"
   viewBox="0 0 233 60"
   fill="none"
   version="1.1"
   id="svg882"
   sodipodi:docname="SnapTestLogo.svg"
   inkscape:version="1.0.2 (e86c8708, 2021-01-15)">
  <metadata
     id="metadata886">
    <rdf:RDF>
      <cc:Work
         rdf:about="">
        <dc:format>image/svg+xml</dc:format>
        <dc:type
           rdf:resource="http://purl.org/dc/dcmitype/StillImage" />
        <dc:title></dc:title>
      </cc:Work>
    </rdf:RDF>
  </metadata>
  <sodipodi:namedview
     pagecolor="#ffffff"
     bordercolor="#666666"
     borderopacity="1"
     objecttolerance="10"
     gridtolerance="10"
     guidetolerance="10"
     inkscape:pageopacity="0"
     inkscape:pageshadow="2"
     inkscape:window-width="1440"
     inkscape:window-height="847"
     id="namedview884"
     showgrid="false"
     inkscape:zoom="3.055794"
     inkscape:cx="116.5"
     inkscape:cy="48.5"
     inkscape:window-x="0"
     inkscape:window-y="25"
     inkscape:window-maximized="1"
     inkscape:current-layer="svg882" />
  <g
     id="g910">
    <path
       d="m 12.1062,29.8756 c -2.32549,0 -4.58257,-0.2872 -6.77126,-0.8618 C 3.14624,28.4393 1.36793,27.6733 0,26.7157 l 2.66747,-5.9915 c 1.28585,0.8481 2.7769,1.5321 4.47314,2.0519 1.69623,0.5198 3.36509,0.7797 5.00659,0.7797 3.1189,0 4.6784,-0.7797 4.6784,-2.3392 0,-0.8207 -0.4514,-1.4226 -1.3543,-1.8056 C 14.5958,19.0006 13.1732,18.5765 11.2034,18.1388 9.04203,17.6737 7.23636,17.1812 5.78635,16.6614 4.33635,16.1142 3.09153,15.2524 2.0519,14.076 1.01227,12.8996 0.492455,11.3128 0.492455,9.31562 0.492455,7.56466 0.971231,5.99154 1.92878,4.59625 2.88634,3.1736 4.30899,2.0519 6.19673,1.23114 8.11184,0.41038 10.451,0 13.2142,0 c 1.8878,0 3.7482,0.21887 5.5812,0.656609 1.833,0.410381 3.4472,1.025951 4.8425,1.846701 L 21.1346,8.5359 C 18.3987,7.05853 15.7449,6.31985 13.1732,6.31985 11.559,6.31985 10.3826,6.56607 9.64392,7.05853 8.90524,7.52363 8.5359,8.1392 8.5359,8.90524 c 0,0.76604 0.43773,1.34056 1.31321,1.72356 0.87549,0.3831 2.28449,0.7798 4.22689,1.1901 2.1887,0.4651 3.9944,0.9713 5.417,1.5184 1.45,0.5199 2.6949,1.368 3.7345,2.5444 1.067,1.1491 1.6005,2.7222 1.6005,4.7194 0,1.7236 -0.4788,3.283 -1.4364,4.6783 -0.9575,1.3953 -2.3938,2.517 -4.3089,3.3651 -1.9151,0.8208 -4.2406,1.2311 -6.9765,1.2311 z"
       fill="#5554e6"
       id="path833" />
    <path
       d="m 42.6984,6.68919 c 2.7632,0 4.9793,0.82076 6.6481,2.46228 1.6963,1.64153 2.5444,4.11743 2.5444,7.42783 V 29.3011 H 44.0937 V 17.8515 c 0,-3.0368 -1.2175,-4.5552 -3.6524,-4.5552 -1.3406,0 -2.4212,0.4377 -3.242,1.3132 -0.7934,0.8755 -1.1901,2.1887 -1.1901,3.9397 V 29.3011 H 28.212 V 7.05853 h 7.4279 v 2.42124 c 0.8754,-0.90284 1.9151,-1.5868 3.1189,-2.0519 1.2037,-0.49245 2.5169,-0.73868 3.9396,-0.73868 z"
       fill="#5554e6"
       id="path835" />
    <path
       d="m 66.2661,6.68919 c 3.6934,0 6.5113,0.84812 8.4538,2.54435 1.9424,1.66886 2.9137,4.24056 2.9137,7.71516 v 12.3524 h -7.2637 v -2.8727 c -1.1218,2.1614 -3.3105,3.2421 -6.5661,3.2421 -1.7236,0 -3.2147,-0.301 -4.4732,-0.9029 -1.2585,-0.6019 -2.216,-1.409 -2.8726,-2.4212 -0.6293,-1.0397 -0.9439,-2.2161 -0.9439,-3.5293 0,-2.1066 0.8071,-3.7344 2.4212,-4.8835 1.6142,-1.1764 4.1038,-1.7646 7.469,-1.7646 h 4.4321 c -0.1368,-2.3529 -1.71,-3.5293 -4.7194,-3.5293 -1.067,0 -2.1477,0.1778 -3.242,0.5335 -1.0943,0.3283 -2.0246,0.7934 -2.7906,1.3953 L 56.458,9.27458 c 1.2311,-0.82076 2.7222,-1.45001 4.4731,-1.88775 1.7783,-0.46509 3.5566,-0.69764 5.335,-0.69764 z M 65.9788,24.7459 c 0.9028,0 1.6962,-0.2189 2.3802,-0.6566 0.684,-0.4378 1.1764,-1.0807 1.4774,-1.9288 v -1.9288 h -3.3652 c -2.2707,0 -3.4061,0.7524 -3.4061,2.2571 0,0.684 0.2599,1.2311 0.7797,1.6415 0.5198,0.4104 1.2312,0.6156 2.134,0.6156 z"
       fill="#5554e6"
       id="path837" />
    <path
       d="m 96.5492,6.68919 c 2.0245,0 3.8578,0.47878 5.4988,1.43633 1.669,0.93019 2.982,2.27078 3.94,4.02168 0.985,1.7236 1.477,3.7345 1.477,6.0326 0,2.2981 -0.492,4.3227 -1.477,6.0736 -0.958,1.7236 -2.271,3.0642 -3.94,4.0218 -1.641,0.9302 -3.4743,1.3953 -5.4988,1.3953 -2.5991,0 -4.6647,-0.7798 -6.1967,-2.3392 v 9.9312 H 82.5552 V 7.05853 h 7.4279 v 2.21605 c 1.45,-1.72359 3.6387,-2.58539 6.5661,-2.58539 z M 94.9077,23.4737 c 1.3679,0 2.4896,-0.4651 3.3651,-1.3953 0.8755,-0.9575 1.3132,-2.2571 1.3132,-3.8986 0,-1.6415 -0.4377,-2.9274 -1.3132,-3.8575 -0.8755,-0.9576 -1.9972,-1.4364 -3.3651,-1.4364 -1.368,0 -2.4897,0.4788 -3.3651,1.4364 -0.8755,0.9301 -1.3133,2.216 -1.3133,3.8575 0,1.6415 0.4378,2.9411 1.3133,3.8986 0.8754,0.9302 1.9971,1.3953 3.3651,1.3953 z"
       fill="#5554e6"
       id="path839" />
    <path
       d="m 115.289,7.01749 h -8.823 V 0.574531 h 25.731 V 7.01749 h -8.782 V 29.3011 h -8.126 z"
       fill="#5554e6"
       id="path841" />
    <path
       d="m 155.345,18.2209 c 0,0.0547 -0.041,0.6976 -0.123,1.9287 h -16.169 c 0.329,1.1491 0.958,2.0383 1.888,2.6675 0.958,0.6019 2.148,0.9028 3.57,0.9028 1.067,0 1.984,-0.1504 2.75,-0.4514 0.793,-0.3009 1.587,-0.7934 2.38,-1.4773 l 4.104,4.2679 c -2.161,2.4076 -5.321,3.6114 -9.48,3.6114 -2.599,0 -4.883,-0.4925 -6.853,-1.4774 -1.97,-0.9849 -3.502,-2.3529 -4.596,-4.1038 -1.067,-1.751 -1.601,-3.7345 -1.601,-5.9505 0,-2.1887 0.52,-4.1449 1.559,-5.8684 1.067,-1.751 2.531,-3.11893 4.392,-4.10385 1.86,-0.98491 3.953,-1.47736 6.278,-1.47736 2.216,0 4.227,0.46509 6.033,1.39529 1.806,0.90283 3.228,2.22972 4.268,3.98072 1.067,1.7236 1.6,3.7755 1.6,6.1557 z m -11.86,-5.9916 c -1.203,0 -2.216,0.342 -3.036,1.026 -0.794,0.6839 -1.3,1.6141 -1.519,2.7905 h 9.111 c -0.219,-1.1764 -0.739,-2.1066 -1.56,-2.7905 -0.793,-0.684 -1.792,-1.026 -2.996,-1.026 z"
       fill="#5554e6"
       id="path843" />
    <path
       d="m 167.025,29.6705 c -1.861,0 -3.694,-0.2052 -5.499,-0.6156 -1.806,-0.4378 -3.256,-0.9986 -4.35,-1.6826 l 2.339,-5.3349 c 1.012,0.6292 2.216,1.1354 3.611,1.5184 1.396,0.3557 2.777,0.5335 4.145,0.5335 1.259,0 2.148,-0.1231 2.668,-0.3694 0.547,-0.2735 0.82,-0.6566 0.82,-1.149 0,-0.4925 -0.328,-0.8345 -0.985,-1.026 -0.629,-0.2188 -1.641,-0.424 -3.036,-0.6155 -1.779,-0.2189 -3.297,-0.5062 -4.556,-0.8618 -1.231,-0.3557 -2.298,-1.0123 -3.201,-1.9699 -0.902,-0.9575 -1.354,-2.2981 -1.354,-4.0217 0,-1.4226 0.424,-2.6811 1.272,-3.7755 0.848,-1.12168 2.08,-1.99715 3.694,-2.6264 1.641,-0.65661 3.597,-0.98491 5.868,-0.98491 1.614,0 3.215,0.16415 4.802,0.49245 1.586,0.32831 2.913,0.7934 3.98,1.39529 l -2.339,5.29387 c -1.97,-1.0943 -4.104,-1.6415 -6.402,-1.6415 -1.231,0 -2.134,0.1505 -2.708,0.4514 -0.575,0.2736 -0.862,0.643 -0.862,1.1081 0,0.5198 0.315,0.8891 0.944,1.108 0.629,0.1915 1.669,0.3967 3.119,0.6156 1.833,0.2735 3.351,0.5882 4.555,0.9438 1.204,0.3557 2.243,1.0123 3.119,1.9698 0.903,0.9302 1.354,2.2435 1.354,3.9397 0,1.3953 -0.424,2.6538 -1.272,3.7755 -0.848,1.0943 -2.107,1.9561 -3.776,2.5854 -1.641,0.6292 -3.625,0.9439 -5.95,0.9439 z"
       fill="#5554e6"
       id="path845" />
    <path
       d="m 196.731,28.3983 c -0.656,0.4104 -1.463,0.725 -2.421,0.9438 -0.93,0.2189 -1.929,0.3284 -2.996,0.3284 -2.9,0 -5.13,-0.7114 -6.689,-2.134 -1.559,-1.4227 -2.339,-3.543 -2.339,-6.3609 v -7.4689 h -3.242 V 7.87929 h 3.242 V 2.09294 h 7.797 v 5.78635 h 5.089 v 5.82741 h -5.089 v 7.3868 c 0,0.7934 0.205,1.4227 0.616,1.8878 0.437,0.4377 1.012,0.6566 1.723,0.6566 0.903,0 1.696,-0.2326 2.38,-0.6977 z"
       fill="#5554e6"
       id="path847" />
    <path
       d="m 120.016,47.6656 c 0.731,0 1.393,0.168 1.986,0.5039 0.593,0.326 1.057,0.7903 1.393,1.393 0.336,0.6026 0.504,1.2893 0.504,2.0599 0,0.7706 -0.168,1.4572 -0.504,2.0598 -0.336,0.6027 -0.8,1.072 -1.393,1.4079 -0.593,0.3359 -1.255,0.5038 -1.986,0.5038 -0.652,0 -1.24,-0.1383 -1.763,-0.4149 -0.514,-0.2766 -0.929,-0.6768 -1.245,-1.2004 v 1.5412 H 116 V 44.5239 h 1.052 v 4.6829 c 0.326,-0.5038 0.741,-0.8842 1.245,-1.1411 0.514,-0.2667 1.087,-0.4001 1.719,-0.4001 z m -0.074,6.9947 c 0.543,0 1.037,-0.1235 1.482,-0.3705 0.444,-0.2568 0.79,-0.6174 1.037,-1.0818 0.257,-0.4643 0.386,-0.9929 0.386,-1.5856 0,-0.5928 -0.129,-1.1214 -0.386,-1.5857 -0.247,-0.4643 -0.593,-0.82 -1.037,-1.067 -0.445,-0.2569 -0.939,-0.3853 -1.482,-0.3853 -0.553,0 -1.052,0.1284 -1.497,0.3853 -0.435,0.247 -0.78,0.6027 -1.037,1.067 -0.247,0.4643 -0.371,0.9929 -0.371,1.5857 0,0.5927 0.124,1.1213 0.371,1.5856 0.257,0.4644 0.602,0.825 1.037,1.0818 0.445,0.247 0.944,0.3705 1.497,0.3705 z"
       fill="#5554e6"
       id="path849" />
    <path
       d="m 132.377,47.7249 -3.898,8.7285 c -0.316,0.7311 -0.682,1.2498 -1.097,1.5561 -0.414,0.3062 -0.913,0.4594 -1.496,0.4594 -0.376,0 -0.726,-0.0593 -1.052,-0.1779 -0.326,-0.1185 -0.608,-0.2964 -0.845,-0.5335 l 0.489,-0.7854 c 0.395,0.3952 0.869,0.5928 1.423,0.5928 0.355,0 0.657,-0.0988 0.904,-0.2964 0.256,-0.1976 0.493,-0.5335 0.711,-1.0077 l 0.341,-0.7558 -3.483,-7.7801 h 1.097 l 2.934,6.6242 2.934,-6.6242 z"
       fill="#5554e6"
       id="path851" />
    <g
       clip-path="url(#clip0_26_1482)"
       id="g875">
      <path
         d="m 145.016,44.2286 -2.359,11.0303 h 2.498 l 0.138,-0.6937 c 0.746,0.6417 1.457,0.9191 2.116,0.9191 2.567,0 4.804,-4.249 4.804,-8.2379 0,-2.6535 -1.266,-4.9949 -4.63,-4.9949 -3.521,0 -6.452,2.2026 -6.452,4.5786 0,1.1794 0.711,1.6129 1.856,1.6129 -0.018,-0.1561 -0.243,-0.2948 -0.243,-1.1793 0,-2.6362 1.96,-4.2144 4.544,-4.2144 1.509,0 2.532,0.9192 2.532,3.2779 0,3.5033 -1.266,7.631 -3.33,7.631 -0.329,0 -0.659,-0.1041 -0.988,-0.3469 l 2.081,-9.7295 z"
         fill="#5554e6"
         id="path853" />
      <path
         d="m 157.035,46.4312 c -3.573,0 -4.752,4.1624 -4.752,6.1568 0,1.9772 1.162,2.7403 2.775,2.7403 2.133,0 3.867,-2.0118 4.145,-5.2203 1.266,-0.2081 2.41,-0.7284 3.069,-1.4395 l -0.156,-0.4683 c -0.745,0.5203 -1.873,1.0406 -2.671,1.0406 -0.052,0 -0.121,0 -0.19,-0.0347 0,-1.821 -0.729,-2.7749 -2.22,-2.7749 z m -1.284,7.3362 c -0.659,0 -0.884,-0.2602 -0.884,-1.4048 0,-1.6996 1.075,-4.8734 2.306,-4.8734 0.451,0 0.625,0.2775 0.66,1.0059 -0.313,0.1387 -0.538,0.4509 -0.538,0.9365 0,0.3469 0.104,0.6417 0.468,0.7284 -0.277,2.0465 -1.162,3.6074 -2.012,3.6074 z"
         fill="#5554e6"
         id="path855" />
      <path
         d="m 164.978,49.0847 c 0.208,0.1388 0.416,0.2081 0.607,0.2081 0.503,0 0.919,-0.4162 0.919,-1.266 0,-0.7978 -0.381,-1.5956 -1.925,-1.5956 -3.521,0 -4.665,4.1624 -4.665,6.1742 0,1.9598 1.075,2.7575 2.705,2.7575 2.307,0 3.781,-1.6129 4.77,-3.2084 h -0.59 c -0.867,0.9885 -1.7,1.7516 -3.07,1.7516 -0.832,0 -1.249,-0.2775 -1.249,-1.4568 0,-1.9251 1.128,-5.0989 2.22,-5.0989 0.33,0 0.486,0.2775 0.486,0.7111 0,0.2948 -0.069,0.6417 -0.208,1.0232 z"
         fill="#5554e6"
         id="path857" />
      <path
         d="m 168.499,44.194 -0.521,2.3933 h -0.572 l -0.139,0.6937 h 0.572 l -1.04,4.8735 c -0.087,0.4162 -0.139,0.7978 -0.139,1.1273 0,1.4568 0.815,2.0811 1.856,2.0811 0.936,0 2.653,-0.3815 3.642,-3.2084 h -0.728 c -0.261,0.8671 -0.885,1.5262 -1.561,1.5262 -0.486,0 -0.711,-0.1561 -0.711,-0.6417 0,-0.1561 0.017,-0.3296 0.069,-0.555 l 1.11,-5.203 h 1.041 l 0.138,-0.6937 h -1.04 l 0.589,-2.7402 z"
         fill="#5554e6"
         id="path859" />
      <path
         d="m 173.771,52.4493 c 0,-0.2081 0.017,-0.4509 0.035,-0.6937 2.081,-0.1214 3.989,-1.665 3.989,-3.6594 0,-0.8672 -0.365,-1.665 -1.908,-1.665 -3.556,0 -4.683,4.1797 -4.683,6.1742 0,1.9598 1.075,2.7575 2.706,2.7575 2.306,0 3.78,-1.6129 4.769,-3.2084 h -0.59 c -0.867,0.9885 -1.699,1.7516 -3.069,1.7516 -0.833,0 -1.249,-0.2775 -1.249,-1.4568 z m 2.688,-4.3878 c 0,1.4395 -1.179,2.7749 -2.515,2.8616 0.347,-1.717 1.197,-3.5727 2.082,-3.5727 0.329,0 0.433,0.2775 0.433,0.7111 z"
         fill="#5554e6"
         id="path861" />
      <path
         d="m 183.917,46.5873 -0.191,0.9019 v -0.1041 c 0,-0.5029 -0.416,-0.8845 -1.405,-0.8845 -3.018,0 -4.457,3.7288 -4.457,6.0701 0,2.0638 1.127,2.7922 2.307,2.7922 0.901,0 1.578,-0.4162 2.081,-0.9538 l -0.208,0.9192 c -1.301,0.3989 -2.827,1.1273 -2.827,2.5841 0,1.1273 0.884,1.6823 1.942,1.6823 1.145,0 2.602,-0.4683 3.122,-2.9484 l 0.26,-1.2487 c 1.075,-0.2948 2.393,-0.9538 3.07,-3.2431 h -0.729 c -0.485,1.5088 -1.127,2.0985 -2.185,2.48 l 1.717,-8.0472 z m -1.058,0.9886 c 0.555,0 0.693,0.4509 0.711,0.6417 l -0.885,4.1103 c -0.243,0.8845 -0.919,1.3528 -1.387,1.3528 -0.312,0 -0.867,-0.0174 -0.867,-1.3528 0,-1.6303 0.954,-4.752 2.428,-4.752 z m -2.688,10.0937 c 0,-0.6937 0.815,-1.1447 1.699,-1.4742 l -0.104,0.503 c -0.225,1.0232 -0.642,1.5435 -1.006,1.5435 -0.381,0 -0.589,-0.3295 -0.589,-0.5723 z"
         fill="#5554e6"
         id="path863" />
      <path
         d="m 188.062,46.5873 -1.838,8.6716 h 2.497 l 1.387,-6.5904 c 0.434,-0.3989 0.746,-0.6591 1.266,-0.6591 0.521,0 0.035,1.1447 1.006,1.1447 0.85,0 1.249,-0.659 1.249,-1.2661 0,-0.659 -0.416,-1.3007 -1.197,-1.3007 -0.832,0 -1.491,0.555 -2.098,1.0753 l 0.225,-1.0753 z"
         fill="#5554e6"
         id="path865" />
      <path
         d="m 194.93,44.2807 c 0,0.7631 0.607,1.3701 1.37,1.3701 0.763,0 1.387,-0.607 1.387,-1.3701 0,-0.7631 -0.624,-1.3875 -1.387,-1.3875 -0.763,0 -1.37,0.6244 -1.37,1.3875 z m -0.347,2.3066 -1.179,5.5672 c -0.087,0.4162 -0.139,0.7977 -0.139,1.1273 0,1.4568 0.815,2.0811 1.856,2.0811 0.936,0 2.653,-0.3815 3.642,-3.2084 h -0.729 c -0.26,0.8671 -0.884,1.5262 -1.561,1.5262 -0.485,0 -0.711,-0.1561 -0.711,-0.6417 0,-0.1561 0.018,-0.3296 0.07,-0.555 l 1.248,-5.8967 z"
         fill="#5554e6"
         id="path867" />
      <path
         d="m 199.734,44.194 -0.52,2.3933 h -0.573 l -0.139,0.6937 h 0.573 l -1.041,4.8735 c -0.087,0.4162 -0.139,0.7978 -0.139,1.1273 0,1.4568 0.816,2.0811 1.856,2.0811 0.937,0 2.654,-0.3815 3.642,-3.2084 h -0.728 c -0.26,0.8671 -0.885,1.5262 -1.561,1.5262 -0.486,0 -0.711,-0.1561 -0.711,-0.6417 0,-0.1561 0.017,-0.3296 0.069,-0.555 l 1.11,-5.203 h 1.041 l 0.139,-0.6937 h -1.041 l 0.59,-2.7402 z"
         fill="#5554e6"
         id="path869" />
      <path
         d="m 203.844,46.5873 -1.179,5.5672 c -0.087,0.4162 -0.139,0.7977 -0.139,1.1273 0,1.4568 0.815,2.0811 1.856,2.0811 0.589,0 1.37,-0.156 2.116,-1.0059 l -0.174,0.7631 c -1.647,0.4856 -3,0.9886 -3,2.6015 0,1.1273 0.988,1.8731 2.046,1.8731 1.145,0 2.637,-0.4683 3.157,-2.9484 l 2.116,-10.059 h -2.515 l -1.179,5.5672 c -0.261,0.8671 -0.711,1.5262 -1.388,1.5262 -0.399,0 -0.52,-0.3643 -0.52,-0.7631 0,-0.1388 0.017,-0.2949 0.052,-0.4336 l 1.249,-5.8967 z m 0.434,10.8915 c 0,-0.9365 0.832,-1.4395 1.925,-1.8037 l -0.208,1.0233 c -0.226,1.0232 -0.677,1.3527 -1.024,1.3527 -0.381,0 -0.693,-0.3295 -0.693,-0.5723 z"
         fill="#5554e6"
         id="path871" />
      <path
         d="m 221.849,51.8147 c 0.485,-0.8486 0.844,-1.4917 1.217,-2.1269 0.413,-0.705 0.809,-1.4238 1.267,-2.0971 0.38,-0.5577 0.756,-0.5499 1.176,-0.0124 0.334,0.427 0.583,0.9263 0.933,1.3372 0.449,0.6683 0.644,1.0682 1.524,1.0289 0.25,-0.0112 0.185,0.5877 0.17,1.111 -0.005,0.1728 -0.491,0.1381 -0.795,0.1401 -0.901,0.0057 -1.33,-0.2912 -1.703,-0.7871 -0.214,-0.2844 -0.436,-0.5774 -0.736,-0.9625 -0.761,1.3152 -1.47,2.5307 -2.17,3.752 -0.652,1.1383 -1.142,1.1432 -1.796,0.0102 -0.409,-0.7085 -0.834,-1.4081 -1.231,-2.1238 -0.217,-0.3908 -0.444,-0.4575 -0.818,-0.1968 -0.209,0.1453 -0.487,0.2528 -0.737,0.2574 -1.361,0.0243 -2.723,0.032 -4.084,-0.0086 -0.231,-0.0068 -0.559,-0.2191 -0.668,-0.431 -1.51,-2.9468 -0.883,-7.7779 3.994,-8.4059 1.687,-0.2174 3.219,0.4277 4.457,1.6435 0.46,0.4521 0.736,0.4258 1.195,-0.0054 2.006,-1.8838 4.612,-2.2026 6.788,-0.8876 2.279,1.3775 3.193,4.8899 1.775,7.4754 -2.045,3.7298 -4.951,6.6366 -8.532,8.8327 -0.454,0.2782 -0.844,0.2582 -1.284,-0.0198 -2.062,-1.6465 -4.348,-3.3331 -6.268,-5.4453 -0.768,-0.7156 -0.4,-1.1924 -0.23,-1.3293 0.082,-0.0733 0.169,-0.1219 0.242,-0.1519 0.248,-0.1021 0.392,-0.0653 0.613,0.0772 0.163,0.1054 0.424,0.4007 0.643,0.5968 1.639,1.6825 3.05,3.018 5.164,4.6114 0.323,0.2898 0.594,0.2848 0.964,0.0272 2.785,-1.9424 5.207,-4.2565 7.069,-7.157 0.736,-1.1456 1.119,-2.3741 0.793,-3.7581 -0.365,-1.5483 -1.283,-2.5873 -2.798,-2.9256 -1.484,-0.3317 -2.858,-0.0267 -3.931,1.1801 -0.277,0.3118 -0.507,0.669 -0.75,1.0123 -0.729,1.0315 -1.028,1.0403 -1.687,-0.0175 -0.566,-0.909 -1.277,-1.6296 -2.26,-2.0438 -1.373,-0.5791 -3.292,-0.1533 -4.308,0.958 -1.02,1.1161 -1.36,3.137 -0.705,4.4778 0.103,0.2094 0.422,0.4153 0.653,0.4305 0.774,0.0515 2.005,0.1021 2.765,-0.021 0.416,-0.0674 0.61,-0.3454 0.777,-0.7508 0.572,-1.0245 1.116,-0.9323 1.739,0.114 0.478,0.8016 0.968,1.5956 1.573,2.5915 z"
         fill="#5554e6"
         id="path873" />
    </g>
  </g>
  <defs
     id="defs880">
    <clipPath
       id="clip0_26_1482">
      <rect
         width="91.195503"
         height="91.195503"
         fill="#ffffff"
         transform="translate(141.131,5.3623)"
         id="rect877"
         x="0"
         y="0" />
    </clipPath>
  </defs>
</svg>
